<svg height="512pt" viewBox="0 -61 512 512" width="512pt" xmlns="http://www.w3.org/2000/svg"><path d="m106 180c-57.988281 0-106 47.011719-106 105s48.011719 105 106 105 105-47.011719 105-105-47.011719-105-105-105zm0 180c-41.351562 0-76-33.648438-76-75s34.648438-75 76-75 75 33.648438 75 75-33.648438 75-75 75zm0 0" fill="#68544f"/><path d="m406 180c-57.988281 0-105 47.011719-105 105s47.011719 105 105 105 106-47.011719 106-105-48.011719-105-106-105zm0 180c-41.351562 0-75-33.648438-75-75s33.648438-75 75-75 76 33.648438 76 75-34.648438 75-76 75zm0 0" fill="#53433f"/><path d="m166 149.984375c-8.289062 0-15-6.707031-15-15v-59.984375c0-8.289062 6.710938-15 15-15s15 6.710938 15 15v59.984375c0 8.292969-6.710938 15-15 15zm0 0" fill="#70da40"/><path d="m196 90h-60c-8.289062 0-15-6.710938-15-15s6.710938-15 15-15h60c8.289062 0 15 6.710938 15 15s-6.710938 15-15 15zm0 0" fill="#68544f"/><path d="m421 120h-60l-15-27.1875 15-32.8125h75c8.285156 0 15 6.714844 15 15v15c0 16.570312-13.429688 30-30 30zm0 0" fill="#dfd7d5"/><path d="m361 45c0-24.8125-20.1875-45-45-45h-30c-8.289062 0-15 6.710938-15 15s6.710938 15 15 15h30c8.277344 0 15 6.722656 15 15v15l14.0625 15 15.9375-15zm0 0" fill="#53433f"/><path d="m346 150c8.289062 0 15-6.710938 15-15v-75h-30v75c0 8.289062 6.710938 15 15 15zm0 0" fill="#56c225"/><path d="m400.300781 271.199219c-7.5 3-16.199219-.898438-19.5-8.398438l-45-112.800781h-159.601562l-42 105-12.296875 30.898438c-2.402344 5.699218-8.101563 9.300781-14.101563 9.300781-1.800781 0-3.601562-.300781-5.402343-.898438-7.796876-3.300781-11.398438-12-8.398438-19.5l7.800781-19.800781 50.398438-125.699219c2.101562-5.699219 7.800781-9.300781 13.800781-9.300781h180c6 0 11.699219 3.601562 13.800781 9.300781l48.902344 122.398438c3.296875 7.5-.601563 16.199219-8.402344 19.5zm0 0" fill="#70da40"/><path d="m357.699219 144.601562-101.699219 123.898438-19.800781 24.300781c-3 3.597657-7.5 5.398438-11.699219 5.398438-3.300781 0-6.601562-1.199219-9.597656-3.300781-6.300782-5.398438-7.203125-14.699219-2.101563-21.296876l43.199219-52.800781 78.300781-95.402343zm0 0" fill="#70da40"/><path d="m357.699219 144.601562-101.699219 123.898438v-47.699219l78.300781-95.402343zm0 0" fill="#56c225"/><path d="m400.300781 271.199219c-7.5 3-16.199219-.898438-19.5-8.398438l-45-112.800781h-79.800781v-30h90c6 0 11.699219 3.601562 13.800781 9.300781l48.898438 122.398438c3.300781 7.5-.597657 16.199219-8.398438 19.5zm0 0" fill="#56c225"/><path d="m271 285c0 11.101562-6 20.699219-15 25.800781-4.5 2.699219-9.601562 4.199219-15 4.199219h-150c-16.5 0-30-13.5-30-30s13.5-30 30-30h150c5.398438 0 10.5 1.5 15 4.199219 9 5.101562 15 14.699219 15 25.800781zm0 0" fill="#dfd7d5"/><path d="m406 330c-24.8125 0-45-20.1875-45-45s20.1875-45 45-45 45 20.1875 45 45-20.1875 45-45 45zm0 0" fill="#d2c5c2"/></svg>