<?xml version="1.0"?>
<svg xmlns="http://www.w3.org/2000/svg" xmlns:xlink="http://www.w3.org/1999/xlink" version="1.1" id="Capa_1" x="0px" y="0px" viewBox="0 0 294.432 294.432" style="enable-background:new 0 0 294.432 294.432;" xml:space="preserve" width="512px" height="512px" class=""><g><path d="M232.884,140.467c-3.049,0-6.045,0.231-8.977,0.662l-18.352-68.373l13.362-5.44c5.052-2.056,8.202-6.906,8.025-12.357  s-3.634-10.088-8.808-11.813l-35.668-11.89c-2.694-0.896-5.666-0.196-7.676,1.812l-16.5,16.5c-2.929,2.93-2.929,7.678,0,10.607  c2.93,2.928,7.678,2.928,10.607,0l13.222-13.223l25.861,8.62l-14.215,5.787c-3.503,1.426-5.396,5.237-4.415,8.891l6.948,25.884  l-71.647,35.823l-17.389-40.784l22.432-11.216c3.538-1.77,5.375-5.849,4.466-9.701c-0.908-3.851-4.307-6.695-8.264-6.695H85.836  c-5.817,0-10.803,4.112-12.122,9.779c-1.319,5.666,1.404,11.495,6.623,14.066l11.449,5.676l12.016,28.202l-15.784,24.486  c-7.457-3.569-15.731-5.688-24.465-5.967c-17.605-0.565-34.054,6.143-46.219,18.702c-11.694,12.074-17.84,27.993-17.303,44.823  c1.032,32.337,27.172,58.477,59.509,59.51c0.673,0.021,1.338,0.033,2.006,0.033c16.812,0,32.514-6.807,44.213-18.886  c9.454-9.761,15.277-21.424,16.88-35.424h9.238c2.629,5,7.898,8.655,13.967,8.655c8.685,0,15.75-6.988,15.75-15.673  c0-8.06-6.088-14.676-13.905-15.594l-5.815-13.619l64.496-38.688l3.077,11.467c-22.344,9.237-38.111,31.26-38.111,56.901  c0,33.938,27.61,61.549,61.548,61.549s61.548-27.61,61.548-61.547S266.822,140.467,232.884,140.467z M110.907,137.965l22.845,53.427  c-0.602,0.722-1.135,1.17-1.602,2.17h-9.513c-1.945-16-10.092-30.062-21.972-39.869L110.907,137.965z M102.427,193.561H74.856  l14.867-23.055C96.208,176.499,100.787,184.561,102.427,193.561z M91.394,230.071c-8.216,8.482-19.341,13.078-31.214,12.701  c-21.822-0.697-39.461-18.298-40.157-40.12c-0.363-11.369,3.784-22.1,11.679-30.25c7.898-8.154,18.498-12.636,29.847-12.636  c0.455,0,0.909,0.013,1.367,0.027c4.983,0.159,9.744,1.213,14.139,2.987l-22.262,34.524c-1.488,2.308-1.597,5.089-0.282,7.499  c1.313,2.411,3.84,3.757,6.585,3.757h41.313C100.951,216.561,97.185,224.092,91.394,230.071z M130.546,145.78l31.567-15.784  l7.948,7.948l-34.126,20.475L130.546,145.78z M183.32,129.989l-7.063-7.063l24.012-12.006l2.058,7.666L183.32,129.989z   M232.884,243.561c-22.909,0-41.548-18.639-41.548-41.548c0-16.389,9.542-30.588,23.359-37.345l8.445,31.462  c0.898,3.35,3.928,5.558,7.238,5.558c0.644,0,1.298-0.084,1.949-0.259c4.001-1.073,6.373-5.187,5.299-9.188l-8.482-31.599  c1.233-0.111,2.478-0.177,3.739-0.177c22.909,0,41.548,18.638,41.548,41.547S255.793,243.561,232.884,243.561z M225.968,71.069  c1.912-1.415,4.466-1.836,6.738-1.143c9.433,2.886,24.252,0.556,43.68-6.871c0.854-0.326,1.804-0.494,2.719-0.494h1.489  c2.395,0,4.646,1.144,6.058,3.078c1.412,1.935,1.815,4.427,1.086,6.708l-16,50c-0.994,3.106-3.882,5.214-7.144,5.214h-34  c-4.143,0-7.833-3.357-7.833-7.5V77.098C222.762,74.72,224.056,72.483,225.968,71.069z" data-original="#000000" class="active-path" data-old_color="#0083AD" fill="#0082AC"/></g> </svg>
