<svg height="512pt" viewBox="0 0 512 512" width="512pt" xmlns="http://www.w3.org/2000/svg"><path d="m512 256c0 141.386719-114.613281 256-256 256s-256-114.613281-256-256 114.613281-256 256-256 256 114.613281 256 256zm0 0" fill="#ffc612"/><path d="m256 512c141.386719 0 256-114.613281 256-256 0-13.847656-1.113281-27.429688-3.230469-40.679688l-130.269531-130.269531-245 266.457031 126.832031 126.832032-36.332031 31.671875c10.484375 1.308593 21.160156 1.988281 32 1.988281zm0 0" fill="#fc9e15"/><path d="m224 510.011719c10.484375 1.308593 21.160156 1.988281 32 1.988281s21.515625-.679688 32-1.988281v-248.511719h-64zm0 0" fill="#414952"/><path d="m255.90625 261.5v250.5h.09375c10.839844 0 21.515625-.679688 32-1.988281v-248.511719zm0 0" fill="#333940"/><path d="m133.5 85.050781h245v266.457031h-245zm0 0" fill="#00c8c8"/><path d="m255.90625 85.050781h122.59375v266.457031h-122.59375zm0 0" fill="#15a4b7"/><path d="m276.183594 114.867188h-80.183594v204.132812h42v-70.5h38.183594c36.84375 0 66.816406-29.972656 66.816406-66.816406 0-36.839844-29.972656-66.816406-66.816406-66.816406zm0 91.632812h-38.183594v-49.632812h38.183594c13.683594 0 24.816406 11.132812 24.816406 24.816406s-11.132812 24.816406-24.816406 24.816406zm0 0" fill="#fff"/><path d="m276.183594 114.867188h-20.277344v42h20.277344c13.683594 0 24.816406 11.132812 24.816406 24.816406s-11.132812 24.816406-24.816406 24.816406h-20.277344v42h20.277344c36.84375 0 66.816406-29.972656 66.816406-66.816406 0-36.839844-29.972656-66.816406-66.816406-66.816406zm0 0" fill="#e9edf5"/></svg>