<?xml version="1.0"?>
<svg xmlns="http://www.w3.org/2000/svg" xmlns:xlink="http://www.w3.org/1999/xlink" version="1.1" id="Layer_1" x="0px" y="0px" viewBox="0 0 512 512" style="enable-background:new 0 0 512 512;" xml:space="preserve" width="512px" height="512px" class=""><g><path style="fill:#65687B" d="M256,264.828c-12.359,0-23.834-1.766-34.428-4.414l16.772,233.931  C239.228,504.055,246.29,512,256,512c9.71,0,16.772-7.945,17.655-17.655l16.772-233.931  C279.835,263.945,268.359,264.828,256,264.828" data-original="#D8D8D8" class="" data-old_color="#787C92"/><path style="fill:#0063FF" d="M388.414,132.414C388.414,59.145,329.269,0,256,0S123.586,59.145,123.586,132.414  S182.731,264.828,256,264.828S388.414,205.683,388.414,132.414" data-original="#48A0DC" class="" data-old_color="#48A0DC"/><g>
	<path style="fill:#FCFCFC" d="M256,132.414c-19.421,0-35.31-15.89-35.31-35.31s15.89-35.31,35.31-35.31s35.31,15.89,35.31,35.31   S275.421,132.414,256,132.414z M256,79.448c-9.71,0-17.655,7.945-17.655,17.655s7.945,17.655,17.655,17.655   c9.71,0,17.655-7.945,17.655-17.655S265.71,79.448,256,79.448z" data-original="#FCFCFC" class="active-path"/>
	<path style="fill:#FCFCFC" d="M300.138,203.034c-5.297,0-8.828-3.531-8.828-8.828v-26.483c0-19.421-15.89-35.31-35.31-35.31   s-35.31,15.89-35.31,35.31v26.483c0,5.297-3.531,8.828-8.828,8.828c-5.297,0-8.828-3.531-8.828-8.828v-26.483   c0-29.131,23.834-52.966,52.966-52.966c29.131,0,52.966,23.834,52.966,52.966v26.483   C308.966,199.503,305.434,203.034,300.138,203.034z" data-original="#FCFCFC" class="active-path"/>
</g></g> </svg>
